<svg width="24" height="24" viewBox="0 0 24 24" fill="none" xmlns="http://www.w3.org/2000/svg">
<path fill-rule="evenodd" clip-rule="evenodd" d="M5.6 6H18.4C19.28 6 20 6.72 20 7.6V14C20 14.88 19.28 15.6 18.4 15.6H7.2L4 18.8L4.008 7.6C4.008 6.72 4.72 6 5.6 6ZM8.40883 11.8401C9.02739 11.8401 9.52883 11.3386 9.52883 10.7201C9.52883 10.1015 9.02739 9.60007 8.40883 9.60007C7.79027 9.60007 7.28883 10.1015 7.28883 10.7201C7.28883 11.3386 7.79027 11.8401 8.40883 11.8401ZM13.04 10.7201C13.04 11.3386 12.5386 11.8401 11.92 11.8401C11.3015 11.8401 10.8 11.3386 10.8 10.7201C10.8 10.1015 11.3015 9.60007 11.92 9.60007C12.5386 9.60007 13.04 10.1015 13.04 10.7201ZM15.4311 11.8401C16.0496 11.8401 16.5511 11.3386 16.5511 10.7201C16.5511 10.1015 16.0496 9.60007 15.4311 9.60007C14.8125 9.60007 14.3111 10.1015 14.3111 10.7201C14.3111 11.3386 14.8125 11.8401 15.4311 11.8401Z" fill="black"/>
</svg>
