<svg width="24" height="24" viewBox="0 0 24 24" fill="none" xmlns="http://www.w3.org/2000/svg">
<path fill-rule="evenodd" clip-rule="evenodd" d="M4.5 1.5C3.70435 1.5 2.94129 1.81607 2.37868 2.37868C1.81607 2.94129 1.5 3.70435 1.5 4.5V19.5C1.5 20.2956 1.81607 21.0587 2.37868 21.6213C2.94129 22.1839 3.70435 22.5 4.5 22.5H19.5C20.2956 22.5 21.0587 22.1839 21.6213 21.6213C22.1839 21.0587 22.5 20.2956 22.5 19.5V4.5C22.5 3.70435 22.1839 2.94129 21.6213 2.37868C21.0587 1.81607 20.2956 1.5 19.5 1.5H4.5ZM6.153 7.9455C6.6284 7.9455 7.08433 7.75665 7.42049 7.42049C7.75665 7.08433 7.9455 6.6284 7.9455 6.153C7.9455 5.6776 7.75665 5.22167 7.42049 4.88551C7.08433 4.54935 6.6284 4.3605 6.153 4.3605C5.6776 4.3605 5.22167 4.54935 4.88551 4.88551C4.54935 5.22167 4.3605 5.6776 4.3605 6.153C4.3605 6.6284 4.54935 7.08433 4.88551 7.42049C5.22167 7.75665 5.6776 7.9455 6.153 7.9455ZM7.653 19.2195V9.351H4.653V19.2195H7.653ZM9.645 9.351H12.645V10.6725C13.0875 9.9795 14.0595 9.0465 15.867 9.0465C18.024 9.0465 19.1955 10.476 19.1955 13.1955C19.1955 13.326 19.2075 13.9215 19.2075 13.9215V19.218H16.2075V13.923C16.2075 13.1955 16.0545 11.766 14.4375 11.766C12.819 11.766 12.6825 13.563 12.645 14.739V19.218H9.645V9.351Z" fill="black"/>
</svg>
