<svg width="24" height="24" viewBox="0 0 24 24" fill="none" xmlns="http://www.w3.org/2000/svg">
<path fill-rule="evenodd" clip-rule="evenodd" d="M3 9.79289C3 10.2383 3.53857 10.4614 3.85355 10.1464L6.29 7.71L10.79 12.21L12.21 10.79L7.71 6.29L10.1464 3.85355C10.4614 3.53857 10.2383 3 9.79289 3H3.5C3.22386 3 3 3.22386 3 3.5V9.79289ZM13.2707 11.8507L17.71 16.29L20.1464 13.8536C20.4614 13.5386 21 13.7617 21 14.2071V20.5C21 20.7761 20.7761 21 20.5 21H14.2071C13.7617 21 13.5386 20.4614 13.8536 20.1464L16.29 17.71L11.8507 13.2707L13.2707 11.8507Z" fill="black"/>
</svg>
