<svg width="24" height="24" viewBox="0 0 24 24" fill="none" xmlns="http://www.w3.org/2000/svg">
<path d="M14.5763 13.5472H14.0343L13.8422 13.3619C14.5146 12.5798 14.9194 11.5643 14.9194 10.4597C14.9194 7.99657 12.9228 6 10.4597 6C7.99657 6 6 7.99657 6 10.4597C6 12.9228 7.99657 14.9194 10.4597 14.9194C11.5643 14.9194 12.5798 14.5146 13.3619 13.8422L13.5472 14.0343V14.5763L16.9777 18L18 16.9777L14.5763 13.5472ZM10.4597 13.5472C8.75129 13.5472 7.37221 12.1681 7.37221 10.4597C7.37221 8.75129 8.75129 7.37221 10.4597 7.37221C12.1681 7.37221 13.5472 8.75129 13.5472 10.4597C13.5472 12.1681 12.1681 13.5472 10.4597 13.5472Z" fill="#CFD0D3"/>
</svg>
